<?xml version="1.0" encoding="iso-8859-1"?>
<!-- Generator: Adobe Illustrator 19.0.0, SVG Export Plug-In . SVG Version: 6.00 Build 0)  -->
<svg version="1.1" id="Layer_1" xmlns="http://www.w3.org/2000/svg" xmlns:xlink="http://www.w3.org/1999/xlink" x="0px" y="0px"
	 viewBox="0 0 299.797 299.797" style="enable-background:new 0 0 299.797 299.797;" xml:space="preserve">
<g>
	<g>
		<g>
			<path d="M149.898,0C67.245,0,0,67.245,0,149.898s67.245,149.898,149.898,149.898s149.898-67.245,149.898-149.898
				S232.552,0,149.898,0z M149.898,278.377c-70.843,0-128.478-57.635-128.478-128.478S79.055,21.42,149.898,21.42
				s128.478,57.635,128.478,128.478S220.741,278.377,149.898,278.377z"/>
			<path d="M207.497,126.454c0-31.76-25.839-57.598-57.598-57.598c-31.76,0-57.598,25.839-57.598,57.598
				c0,19.32,9.57,36.434,24.209,46.888C101.871,183.797,92.3,200.911,92.3,220.231c0,5.916,4.794,10.71,10.71,10.71
				c5.916,0,10.71-4.794,10.71-10.71c0-19.949,16.23-36.178,36.178-36.178c19.948,0,36.178,16.229,36.178,36.178
				c0,5.916,4.795,10.71,10.71,10.71s10.71-4.794,10.71-10.71c0-19.32-9.57-36.434-24.209-46.888
				C197.927,162.888,207.497,145.773,207.497,126.454z M149.898,162.633c-19.948,0-36.178-16.23-36.178-36.178
				c0-19.949,16.23-36.178,36.178-36.178c19.948,0,36.178,16.229,36.178,36.178S169.846,162.633,149.898,162.633z"/>
		</g>
	</g>
</g>
<g>
</g>
<g>
</g>
<g>
</g>
<g>
</g>
<g>
</g>
<g>
</g>
<g>
</g>
<g>
</g>
<g>
</g>
<g>
</g>
<g>
</g>
<g>
</g>
<g>
</g>
<g>
</g>
<g>
</g>
</svg>
